<svg width="180" height="18" viewBox="0 0 180 18" fill="none" xmlns="http://www.w3.org/2000/svg">
<path d="M8.655 12.4425C8.765 12.4425 8.8625 12.485 8.9475 12.57L9.7425 13.4325C9.3025 13.9775 8.76 14.395 8.115 14.685C7.475 14.975 6.705 15.12 5.805 15.12C5 15.12 4.275 14.9825 3.63 14.7075C2.99 14.4325 2.4425 14.05 1.9875 13.56C1.5325 13.07 1.1825 12.485 0.9375 11.805C0.6975 11.125 0.5775 10.3825 0.5775 9.5775C0.5775 8.7625 0.7075 8.0175 0.9675 7.3425C1.2275 6.6625 1.5925 6.0775 2.0625 5.5875C2.5375 5.0975 3.1025 4.7175 3.7575 4.4475C4.4125 4.1725 5.1375 4.035 5.9325 4.035C6.7225 4.035 7.4225 4.165 8.0325 4.425C8.6475 4.685 9.17 5.025 9.6 5.445L8.925 6.3825C8.885 6.4425 8.8325 6.495 8.7675 6.54C8.7075 6.585 8.6225 6.6075 8.5125 6.6075C8.4375 6.6075 8.36 6.5875 8.28 6.5475C8.2 6.5025 8.1125 6.45 8.0175 6.39C7.9225 6.325 7.8125 6.255 7.6875 6.18C7.5625 6.105 7.4175 6.0375 7.2525 5.9775C7.0875 5.9125 6.895 5.86 6.675 5.82C6.46 5.775 6.21 5.7525 5.925 5.7525C5.44 5.7525 4.995 5.84 4.59 6.015C4.19 6.185 3.845 6.435 3.555 6.765C3.265 7.09 3.04 7.49 2.88 7.965C2.72 8.435 2.64 8.9725 2.64 9.5775C2.64 10.1875 2.725 10.73 2.895 11.205C3.07 11.68 3.305 12.08 3.6 12.405C3.895 12.73 4.2425 12.98 4.6425 13.155C5.0425 13.325 5.4725 13.41 5.9325 13.41C6.2075 13.41 6.455 13.395 6.675 13.365C6.9 13.335 7.105 13.2875 7.29 13.2225C7.48 13.1575 7.6575 13.075 7.8225 12.975C7.9925 12.87 8.16 12.7425 8.325 12.5925C8.375 12.5475 8.4275 12.5125 8.4825 12.4875C8.5375 12.4575 8.595 12.4425 8.655 12.4425ZM15.4002 7.7925C15.4902 7.6475 15.6127 7.53 15.7677 7.44C15.9227 7.35 16.0877 7.305 16.2627 7.305H17.7177L15.9252 10.1625C15.8002 10.3625 15.6727 10.525 15.5427 10.65C15.4127 10.77 15.2552 10.865 15.0702 10.935C15.3202 11.01 15.5252 11.1225 15.6852 11.2725C15.8452 11.4175 15.9902 11.6025 16.1202 11.8275L17.9202 15H16.6377C16.3127 15 16.0602 14.945 15.8802 14.835C15.7002 14.725 15.5477 14.5675 15.4227 14.3625L14.2902 12.2325C14.1902 12.0475 14.0602 11.91 13.9002 11.82C13.7452 11.73 13.5627 11.685 13.3527 11.685H12.6552V15H10.8027V7.305H12.6552V10.4775H13.2552C13.4652 10.4775 13.6327 10.44 13.7577 10.365C13.8877 10.285 13.9977 10.165 14.0877 10.005L15.4002 7.7925ZM20.7997 13.005C21.0097 13.26 21.2372 13.44 21.4822 13.545C21.7322 13.65 22.0022 13.7025 22.2922 13.7025C22.5722 13.7025 22.8247 13.65 23.0497 13.545C23.2747 13.44 23.4647 13.28 23.6197 13.065C23.7797 12.85 23.9022 12.58 23.9872 12.255C24.0722 11.925 24.1147 11.5375 24.1147 11.0925C24.1147 10.6425 24.0772 10.2625 24.0022 9.9525C23.9322 9.6375 23.8297 9.3825 23.6947 9.1875C23.5597 8.9925 23.3947 8.85 23.1997 8.76C23.0097 8.67 22.7922 8.625 22.5472 8.625C22.1622 8.625 21.8347 8.7075 21.5647 8.8725C21.2947 9.0325 21.0397 9.26 20.7997 9.555V13.005ZM20.7022 8.355C21.0172 8 21.3747 7.7125 21.7747 7.4925C22.1747 7.2725 22.6447 7.1625 23.1847 7.1625C23.6047 7.1625 23.9872 7.25 24.3322 7.425C24.6822 7.6 24.9822 7.855 25.2322 8.19C25.4872 8.52 25.6822 8.93 25.8172 9.42C25.9572 9.905 26.0272 10.4625 26.0272 11.0925C26.0272 11.6675 25.9497 12.2 25.7947 12.69C25.6397 13.18 25.4172 13.605 25.1272 13.965C24.8422 14.325 24.4947 14.6075 24.0847 14.8125C23.6797 15.0125 23.2247 15.1125 22.7197 15.1125C22.2897 15.1125 21.9222 15.0475 21.6172 14.9175C21.3122 14.7825 21.0397 14.5975 20.7997 14.3625V17.5125H18.9472V7.305H20.0797C20.3197 7.305 20.4772 7.4175 20.5522 7.6425L20.7022 8.355ZM30.6005 13.6725C31.0205 13.6725 31.333 13.5675 31.538 13.3575C31.748 13.1475 31.853 12.8775 31.853 12.5475C31.853 12.4075 31.828 12.2725 31.778 12.1425C31.733 12.0125 31.6605 11.8975 31.5605 11.7975C31.4605 11.6975 31.3305 11.62 31.1705 11.565C31.0105 11.505 30.818 11.475 30.593 11.475H29.2205V13.6725H30.6005ZM30.5855 10.155C31.1205 10.155 31.573 10.22 31.943 10.35C32.313 10.48 32.613 10.655 32.843 10.875C33.073 11.095 33.238 11.35 33.338 11.64C33.443 11.925 33.4955 12.225 33.4955 12.54C33.4955 12.9 33.4305 13.2325 33.3005 13.5375C33.1755 13.8375 32.988 14.0975 32.738 14.3175C32.493 14.5325 32.1905 14.7 31.8305 14.82C31.4755 14.94 31.068 15 30.608 15H27.458V7.305H29.2205V10.155H30.5855ZM36.7505 7.305V15H34.898V7.305H36.7505ZM45.1761 8.6775H42.4311V15H40.5786V8.6775H37.8411V7.305H45.1761V8.6775ZM49.4091 13.6725C49.8291 13.6725 50.1416 13.5675 50.3466 13.3575C50.5566 13.1475 50.6616 12.8775 50.6616 12.5475C50.6616 12.4075 50.6366 12.2725 50.5866 12.1425C50.5416 12.0125 50.4691 11.8975 50.3691 11.7975C50.2691 11.6975 50.1391 11.62 49.9791 11.565C49.8191 11.505 49.6266 11.475 49.4016 11.475H48.0291V13.6725H49.4091ZM49.3941 10.155C49.9291 10.155 50.3816 10.22 50.7516 10.35C51.1216 10.48 51.4216 10.655 51.6516 10.875C51.8816 11.095 52.0466 11.35 52.1466 11.64C52.2516 11.925 52.3041 12.225 52.3041 12.54C52.3041 12.9 52.2391 13.2325 52.1091 13.5375C51.9841 13.8375 51.7966 14.0975 51.5466 14.3175C51.3016 14.5325 50.9991 14.7 50.6391 14.82C50.2841 14.94 49.8766 15 49.4166 15H46.2666V7.305H48.0291V10.155H49.3941ZM62.7068 8.9325C62.6518 9.0025 62.5968 9.0575 62.5418 9.0975C62.4918 9.1375 62.4168 9.1575 62.3168 9.1575C62.2218 9.1575 62.1293 9.13 62.0393 9.075C61.9493 9.015 61.8418 8.95 61.7168 8.88C61.5918 8.805 61.4418 8.74 61.2668 8.685C61.0968 8.625 60.8843 8.595 60.6293 8.595C60.3043 8.595 60.0193 8.655 59.7743 8.775C59.5293 8.89 59.3243 9.0575 59.1593 9.2775C58.9993 9.4975 58.8793 9.765 58.7993 10.08C58.7193 10.39 58.6793 10.7425 58.6793 11.1375C58.6793 11.5475 58.7218 11.9125 58.8068 12.2325C58.8968 12.5525 59.0243 12.8225 59.1893 13.0425C59.3543 13.2575 59.5543 13.4225 59.7893 13.5375C60.0243 13.6475 60.2893 13.7025 60.5843 13.7025C60.8793 13.7025 61.1168 13.6675 61.2968 13.5975C61.4818 13.5225 61.6368 13.4425 61.7618 13.3575C61.8868 13.2675 61.9943 13.1875 62.0843 13.1175C62.1793 13.0425 62.2843 13.005 62.3993 13.005C62.5493 13.005 62.6618 13.0625 62.7368 13.1775L63.2693 13.8525C63.0643 14.0925 62.8418 14.295 62.6018 14.46C62.3618 14.62 62.1118 14.75 61.8518 14.85C61.5968 14.945 61.3318 15.0125 61.0568 15.0525C60.7868 15.0925 60.5168 15.1125 60.2468 15.1125C59.7718 15.1125 59.3243 15.025 58.9043 14.85C58.4843 14.67 58.1168 14.41 57.8018 14.07C57.4868 13.73 57.2368 13.315 57.0518 12.825C56.8718 12.33 56.7818 11.7675 56.7818 11.1375C56.7818 10.5725 56.8618 10.05 57.0218 9.57C57.1868 9.085 57.4268 8.6675 57.7418 8.3175C58.0568 7.9625 58.4468 7.685 58.9118 7.485C59.3768 7.285 59.9118 7.185 60.5168 7.185C61.0918 7.185 61.5943 7.2775 62.0243 7.4625C62.4593 7.6475 62.8493 7.9125 63.1943 8.2575L62.7068 8.9325ZM67.7038 7.185C68.2738 7.185 68.7913 7.2775 69.2563 7.4625C69.7263 7.6475 70.1263 7.91 70.4563 8.25C70.7913 8.59 71.0488 9.005 71.2288 9.495C71.4088 9.985 71.4988 10.5325 71.4988 11.1375C71.4988 11.7475 71.4088 12.2975 71.2288 12.7875C71.0488 13.2775 70.7913 13.695 70.4563 14.04C70.1263 14.385 69.7263 14.65 69.2563 14.835C68.7913 15.02 68.2738 15.1125 67.7038 15.1125C67.1288 15.1125 66.6063 15.02 66.1363 14.835C65.6663 14.65 65.2638 14.385 64.9288 14.04C64.5988 13.695 64.3413 13.2775 64.1563 12.7875C63.9763 12.2975 63.8863 11.7475 63.8863 11.1375C63.8863 10.5325 63.9763 9.985 64.1563 9.495C64.3413 9.005 64.5988 8.59 64.9288 8.25C65.2638 7.91 65.6663 7.6475 66.1363 7.4625C66.6063 7.2775 67.1288 7.185 67.7038 7.185ZM67.7038 13.6875C68.3438 13.6875 68.8163 13.4725 69.1213 13.0425C69.4313 12.6125 69.5863 11.9825 69.5863 11.1525C69.5863 10.3225 69.4313 9.69 69.1213 9.255C68.8163 8.82 68.3438 8.6025 67.7038 8.6025C67.0538 8.6025 66.5713 8.8225 66.2563 9.2625C65.9463 9.6975 65.7913 10.3275 65.7913 11.1525C65.7913 11.9775 65.9463 12.6075 66.2563 13.0425C66.5713 13.4725 67.0538 13.6875 67.7038 13.6875ZM77.8223 13.68V8.7225H75.9323C75.8823 9.3675 75.8198 9.95 75.7448 10.47C75.6698 10.985 75.5823 11.445 75.4823 11.85C75.3823 12.255 75.2723 12.6075 75.1523 12.9075C75.0373 13.2075 74.9123 13.465 74.7773 13.68H77.8223ZM81.0323 13.6275V17.025C81.0323 17.195 80.9823 17.33 80.8823 17.43C80.7873 17.53 80.6623 17.58 80.5073 17.58H79.3523V15H73.5923V17.055C73.5923 17.185 73.5498 17.305 73.4648 17.415C73.3848 17.525 73.2573 17.58 73.0823 17.58H71.9123V13.68H72.1298C72.3048 13.68 72.4748 13.6575 72.6398 13.6125C72.8048 13.5625 72.9623 13.4625 73.1123 13.3125C73.2673 13.1625 73.4123 12.9475 73.5473 12.6675C73.6873 12.3825 73.8123 12.005 73.9223 11.535C74.0323 11.06 74.1273 10.4775 74.2073 9.7875C74.2923 9.0975 74.3598 8.27 74.4098 7.305H79.6223V13.6275H81.0323ZM87.0248 10.2675C87.0248 10.0275 86.9898 9.8025 86.9198 9.5925C86.8548 9.3775 86.7548 9.19 86.6198 9.03C86.4848 8.87 86.3123 8.745 86.1023 8.655C85.8973 8.56 85.6573 8.5125 85.3823 8.5125C84.8473 8.5125 84.4248 8.665 84.1148 8.97C83.8098 9.275 83.6148 9.7075 83.5298 10.2675H87.0248ZM83.4923 11.385C83.5223 11.78 83.5923 12.1225 83.7023 12.4125C83.8123 12.6975 83.9573 12.935 84.1373 13.125C84.3173 13.31 84.5298 13.45 84.7748 13.545C85.0248 13.635 85.2998 13.68 85.5998 13.68C85.8998 13.68 86.1573 13.645 86.3723 13.575C86.5923 13.505 86.7823 13.4275 86.9423 13.3425C87.1073 13.2575 87.2498 13.18 87.3698 13.11C87.4948 13.04 87.6148 13.005 87.7298 13.005C87.8848 13.005 87.9998 13.0625 88.0748 13.1775L88.6073 13.8525C88.4023 14.0925 88.1723 14.295 87.9173 14.46C87.6623 14.62 87.3948 14.75 87.1148 14.85C86.8398 14.945 86.5573 15.0125 86.2673 15.0525C85.9823 15.0925 85.7048 15.1125 85.4348 15.1125C84.8998 15.1125 84.4023 15.025 83.9423 14.85C83.4823 14.67 83.0823 14.4075 82.7423 14.0625C82.4023 13.7125 82.1348 13.2825 81.9398 12.7725C81.7448 12.2575 81.6473 11.6625 81.6473 10.9875C81.6473 10.4625 81.7323 9.97 81.9023 9.51C82.0723 9.045 82.3148 8.6425 82.6298 8.3025C82.9498 7.9575 83.3373 7.685 83.7923 7.485C84.2523 7.285 84.7698 7.185 85.3448 7.185C85.8298 7.185 86.2773 7.2625 86.6873 7.4175C87.0973 7.5725 87.4498 7.8 87.7448 8.1C88.0398 8.395 88.2698 8.76 88.4348 9.195C88.6048 9.625 88.6898 10.1175 88.6898 10.6725C88.6898 10.9525 88.6598 11.1425 88.5998 11.2425C88.5398 11.3375 88.4248 11.385 88.2548 11.385H83.4923ZM91.9325 13.005C92.1425 13.26 92.37 13.44 92.615 13.545C92.865 13.65 93.135 13.7025 93.425 13.7025C93.705 13.7025 93.9575 13.65 94.1825 13.545C94.4075 13.44 94.5975 13.28 94.7525 13.065C94.9125 12.85 95.035 12.58 95.12 12.255C95.205 11.925 95.2475 11.5375 95.2475 11.0925C95.2475 10.6425 95.21 10.2625 95.135 9.9525C95.065 9.6375 94.9625 9.3825 94.8275 9.1875C94.6925 8.9925 94.5275 8.85 94.3325 8.76C94.1425 8.67 93.925 8.625 93.68 8.625C93.295 8.625 92.9675 8.7075 92.6975 8.8725C92.4275 9.0325 92.1725 9.26 91.9325 9.555V13.005ZM91.835 8.355C92.15 8 92.5075 7.7125 92.9075 7.4925C93.3075 7.2725 93.7775 7.1625 94.3175 7.1625C94.7375 7.1625 95.12 7.25 95.465 7.425C95.815 7.6 96.115 7.855 96.365 8.19C96.62 8.52 96.815 8.93 96.95 9.42C97.09 9.905 97.16 10.4625 97.16 11.0925C97.16 11.6675 97.0825 12.2 96.9275 12.69C96.7725 13.18 96.55 13.605 96.26 13.965C95.975 14.325 95.6275 14.6075 95.2175 14.8125C94.8125 15.0125 94.3575 15.1125 93.8525 15.1125C93.4225 15.1125 93.055 15.0475 92.75 14.9175C92.445 14.7825 92.1725 14.5975 91.9325 14.3625V17.5125H90.08V7.305H91.2125C91.4525 7.305 91.61 7.4175 91.685 7.6425L91.835 8.355ZM109.569 15H108.287C107.957 15 107.707 14.95 107.537 14.85C107.367 14.75 107.232 14.5875 107.132 14.3625L105.992 12.2325C105.897 12.0475 105.769 11.91 105.609 11.82C105.454 11.73 105.272 11.685 105.062 11.685H104.454V15H102.662V11.685H102.047C101.842 11.685 101.659 11.73 101.499 11.82C101.339 11.91 101.212 12.0475 101.117 12.2325L99.9768 14.3625C99.8768 14.5875 99.7418 14.75 99.5718 14.85C99.4018 14.95 99.1518 15 98.8218 15H97.5468L99.3468 11.8275C99.4718 11.6025 99.6143 11.4175 99.7743 11.2725C99.9343 11.1225 100.139 11.0075 100.389 10.9275C100.204 10.8625 100.047 10.77 99.9168 10.65C99.7868 10.525 99.6618 10.3625 99.5418 10.1625L97.7418 7.305H99.2043C99.3743 7.305 99.5293 7.35 99.6693 7.44C99.8143 7.525 99.9268 7.6425 100.007 7.7925L101.312 10.005C101.407 10.165 101.517 10.285 101.642 10.365C101.772 10.44 101.942 10.4775 102.152 10.4775H102.662V7.305H104.454V10.4775H104.927C105.137 10.4775 105.309 10.44 105.444 10.365C105.584 10.285 105.702 10.165 105.797 10.005L107.102 7.7925C107.182 7.6425 107.292 7.525 107.432 7.44C107.577 7.35 107.737 7.305 107.912 7.305H109.367L107.567 10.1625C107.447 10.3625 107.322 10.525 107.192 10.65C107.062 10.77 106.904 10.8625 106.719 10.9275C106.969 11.0075 107.174 11.1225 107.334 11.2725C107.494 11.4175 107.637 11.6025 107.762 11.8275L109.569 15ZM114.668 11.715C114.133 11.74 113.683 11.7875 113.318 11.8575C112.953 11.9225 112.66 12.0075 112.44 12.1125C112.22 12.2175 112.063 12.34 111.968 12.48C111.873 12.62 111.825 12.7725 111.825 12.9375C111.825 13.2625 111.92 13.495 112.11 13.635C112.305 13.775 112.558 13.845 112.868 13.845C113.248 13.845 113.575 13.7775 113.85 13.6425C114.13 13.5025 114.403 13.2925 114.668 13.0125V11.715ZM110.423 8.3775C111.308 7.5675 112.373 7.1625 113.618 7.1625C114.068 7.1625 114.47 7.2375 114.825 7.3875C115.18 7.5325 115.48 7.7375 115.725 8.0025C115.97 8.2625 116.155 8.575 116.28 8.94C116.41 9.305 116.475 9.705 116.475 10.14V15H115.635C115.46 15 115.325 14.975 115.23 14.925C115.135 14.87 115.06 14.7625 115.005 14.6025L114.84 14.0475C114.645 14.2225 114.455 14.3775 114.27 14.5125C114.085 14.6425 113.893 14.7525 113.693 14.8425C113.493 14.9325 113.278 15 113.048 15.045C112.823 15.095 112.573 15.12 112.298 15.12C111.973 15.12 111.673 15.0775 111.398 14.9925C111.123 14.9025 110.885 14.77 110.685 14.595C110.485 14.42 110.33 14.2025 110.22 13.9425C110.11 13.6825 110.055 13.38 110.055 13.035C110.055 12.84 110.088 12.6475 110.153 12.4575C110.218 12.2625 110.323 12.0775 110.468 11.9025C110.618 11.7275 110.81 11.5625 111.045 11.4075C111.28 11.2525 111.568 11.1175 111.908 11.0025C112.253 10.8875 112.653 10.795 113.108 10.725C113.563 10.65 114.083 10.605 114.668 10.59V10.14C114.668 9.625 114.558 9.245 114.338 9C114.118 8.75 113.8 8.625 113.385 8.625C113.085 8.625 112.835 8.66 112.635 8.73C112.44 8.8 112.268 8.88 112.118 8.97C111.968 9.055 111.83 9.1325 111.705 9.2025C111.585 9.2725 111.45 9.3075 111.3 9.3075C111.17 9.3075 111.06 9.275 110.97 9.21C110.88 9.14 110.808 9.06 110.753 8.97L110.423 8.3775ZM124.925 7.305V15H123.072V11.595H120.072V15H118.22V7.305H120.072V10.2225H123.072V7.305H124.925ZM133.675 7.305V15H131.822V10.5075C131.822 10.3925 131.827 10.2675 131.837 10.1325C131.852 9.9925 131.87 9.8525 131.89 9.7125C131.79 9.9425 131.68 10.145 131.56 10.32C131.55 10.33 131.5 10.4 131.41 10.53C131.32 10.655 131.202 10.8175 131.057 11.0175C130.917 11.2175 130.757 11.445 130.577 11.7C130.397 11.95 130.215 12.205 130.03 12.465C129.595 13.08 129.102 13.775 128.552 14.55C128.482 14.655 128.39 14.7575 128.275 14.8575C128.165 14.9575 128.037 15.0075 127.892 15.0075H126.76V7.3125H128.612V11.805C128.612 11.92 128.605 12.0475 128.59 12.1875C128.58 12.3225 128.565 12.46 128.545 12.6C128.655 12.355 128.765 12.1525 128.875 11.9925C128.88 11.9825 128.927 11.915 129.017 11.79C129.107 11.665 129.222 11.5025 129.362 11.3025C129.507 11.1025 129.67 10.8775 129.85 10.6275C130.03 10.3725 130.212 10.1125 130.397 9.8475C130.832 9.2325 131.327 8.5375 131.882 7.7625C131.952 7.6525 132.045 7.55 132.16 7.455C132.275 7.355 132.405 7.305 132.55 7.305H133.675ZM140.462 10.2675C140.462 10.0275 140.427 9.8025 140.357 9.5925C140.292 9.3775 140.192 9.19 140.057 9.03C139.922 8.87 139.75 8.745 139.54 8.655C139.335 8.56 139.095 8.5125 138.82 8.5125C138.285 8.5125 137.862 8.665 137.552 8.97C137.247 9.275 137.052 9.7075 136.967 10.2675H140.462ZM136.93 11.385C136.96 11.78 137.03 12.1225 137.14 12.4125C137.25 12.6975 137.395 12.935 137.575 13.125C137.755 13.31 137.967 13.45 138.212 13.545C138.462 13.635 138.737 13.68 139.037 13.68C139.337 13.68 139.595 13.645 139.81 13.575C140.03 13.505 140.22 13.4275 140.38 13.3425C140.545 13.2575 140.687 13.18 140.807 13.11C140.932 13.04 141.052 13.005 141.167 13.005C141.322 13.005 141.437 13.0625 141.512 13.1775L142.045 13.8525C141.84 14.0925 141.61 14.295 141.355 14.46C141.1 14.62 140.832 14.75 140.552 14.85C140.277 14.945 139.995 15.0125 139.705 15.0525C139.42 15.0925 139.142 15.1125 138.872 15.1125C138.337 15.1125 137.84 15.025 137.38 14.85C136.92 14.67 136.52 14.4075 136.18 14.0625C135.84 13.7125 135.572 13.2825 135.377 12.7725C135.182 12.2575 135.085 11.6625 135.085 10.9875C135.085 10.4625 135.17 9.97 135.34 9.51C135.51 9.045 135.752 8.6425 136.067 8.3025C136.387 7.9575 136.775 7.685 137.23 7.485C137.69 7.285 138.207 7.185 138.782 7.185C139.267 7.185 139.715 7.2625 140.125 7.4175C140.535 7.5725 140.887 7.8 141.182 8.1C141.477 8.395 141.707 8.76 141.872 9.195C142.042 9.625 142.127 10.1175 142.127 10.6725C142.127 10.9525 142.097 11.1425 142.037 11.2425C141.977 11.3375 141.862 11.385 141.692 11.385H136.93Z" fill="white"/>
<path d="M174 5L179.196 14H168.804L174 5Z" fill="white"/>
</svg>
