<svg width="180" height="18" viewBox="0 0 180 18" fill="none" xmlns="http://www.w3.org/2000/svg">
<path d="M8.655 12.4425C8.765 12.4425 8.8625 12.485 8.9475 12.57L9.7425 13.4325C9.3025 13.9775 8.76 14.395 8.115 14.685C7.475 14.975 6.705 15.12 5.805 15.12C5 15.12 4.275 14.9825 3.63 14.7075C2.99 14.4325 2.4425 14.05 1.9875 13.56C1.5325 13.07 1.1825 12.485 0.9375 11.805C0.6975 11.125 0.5775 10.3825 0.5775 9.5775C0.5775 8.7625 0.7075 8.0175 0.9675 7.3425C1.2275 6.6625 1.5925 6.0775 2.0625 5.5875C2.5375 5.0975 3.1025 4.7175 3.7575 4.4475C4.4125 4.1725 5.1375 4.035 5.9325 4.035C6.7225 4.035 7.4225 4.165 8.0325 4.425C8.6475 4.685 9.17 5.025 9.6 5.445L8.925 6.3825C8.885 6.4425 8.8325 6.495 8.7675 6.54C8.7075 6.585 8.6225 6.6075 8.5125 6.6075C8.4375 6.6075 8.36 6.5875 8.28 6.5475C8.2 6.5025 8.1125 6.45 8.0175 6.39C7.9225 6.325 7.8125 6.255 7.6875 6.18C7.5625 6.105 7.4175 6.0375 7.2525 5.9775C7.0875 5.9125 6.895 5.86 6.675 5.82C6.46 5.775 6.21 5.7525 5.925 5.7525C5.44 5.7525 4.995 5.84 4.59 6.015C4.19 6.185 3.845 6.435 3.555 6.765C3.265 7.09 3.04 7.49 2.88 7.965C2.72 8.435 2.64 8.9725 2.64 9.5775C2.64 10.1875 2.725 10.73 2.895 11.205C3.07 11.68 3.305 12.08 3.6 12.405C3.895 12.73 4.2425 12.98 4.6425 13.155C5.0425 13.325 5.4725 13.41 5.9325 13.41C6.2075 13.41 6.455 13.395 6.675 13.365C6.9 13.335 7.105 13.2875 7.29 13.2225C7.48 13.1575 7.6575 13.075 7.8225 12.975C7.9925 12.87 8.16 12.7425 8.325 12.5925C8.375 12.5475 8.4275 12.5125 8.4825 12.4875C8.5375 12.4575 8.595 12.4425 8.655 12.4425ZM19.7202 7.29V15H18.0477V10.71C18.0477 10.535 18.0552 10.3375 18.0702 10.1175C18.0902 9.8975 18.1202 9.6925 18.1602 9.5025L15.8952 13.6575C15.7852 13.8725 15.6102 13.98 15.3702 13.98H15.1752C14.9352 13.98 14.7602 13.8725 14.6502 13.6575L12.3552 9.48C12.3902 9.67 12.4177 9.8775 12.4377 10.1025C12.4627 10.3275 12.4752 10.53 12.4752 10.71V15H10.8027V7.29H12.3327C12.4627 7.29 12.5902 7.3175 12.7152 7.3725C12.8452 7.4275 12.9527 7.5375 13.0377 7.7025L14.8527 10.9425C14.9327 11.0925 15.0077 11.2525 15.0777 11.4225C15.1477 11.5875 15.2127 11.755 15.2727 11.925C15.3327 11.755 15.3952 11.585 15.4602 11.415C15.5302 11.245 15.6052 11.0875 15.6852 10.9425L17.4852 7.7025C17.5752 7.5325 17.6827 7.4225 17.8077 7.3725C17.9327 7.3175 18.0602 7.29 18.1902 7.29H19.7202ZM24.9596 7.185C25.5296 7.185 26.0471 7.2775 26.5121 7.4625C26.9821 7.6475 27.3821 7.91 27.7121 8.25C28.0471 8.59 28.3046 9.005 28.4846 9.495C28.6646 9.985 28.7546 10.5325 28.7546 11.1375C28.7546 11.7475 28.6646 12.2975 28.4846 12.7875C28.3046 13.2775 28.0471 13.695 27.7121 14.04C27.3821 14.385 26.9821 14.65 26.5121 14.835C26.0471 15.02 25.5296 15.1125 24.9596 15.1125C24.3846 15.1125 23.8621 15.02 23.3921 14.835C22.9221 14.65 22.5196 14.385 22.1846 14.04C21.8546 13.695 21.5971 13.2775 21.4121 12.7875C21.2321 12.2975 21.1421 11.7475 21.1421 11.1375C21.1421 10.5325 21.2321 9.985 21.4121 9.495C21.5971 9.005 21.8546 8.59 22.1846 8.25C22.5196 7.91 22.9221 7.6475 23.3921 7.4625C23.8621 7.2775 24.3846 7.185 24.9596 7.185ZM24.9596 13.6875C25.5996 13.6875 26.0721 13.4725 26.3771 13.0425C26.6871 12.6125 26.8421 11.9825 26.8421 11.1525C26.8421 10.3225 26.6871 9.69 26.3771 9.255C26.0721 8.82 25.5996 8.6025 24.9596 8.6025C24.3096 8.6025 23.8271 8.8225 23.5121 9.2625C23.2021 9.6975 23.0471 10.3275 23.0471 11.1525C23.0471 11.9775 23.2021 12.6075 23.5121 13.0425C23.8271 13.4725 24.3096 13.6875 24.9596 13.6875ZM36.5482 8.6775H33.8032V15H31.9507V8.6775H29.2132V7.305H36.5482V8.6775ZM39.4911 13.005C39.7011 13.26 39.9286 13.44 40.1736 13.545C40.4236 13.65 40.6936 13.7025 40.9836 13.7025C41.2636 13.7025 41.5161 13.65 41.7411 13.545C41.9661 13.44 42.1561 13.28 42.3111 13.065C42.4711 12.85 42.5936 12.58 42.6786 12.255C42.7636 11.925 42.8061 11.5375 42.8061 11.0925C42.8061 10.6425 42.7686 10.2625 42.6936 9.9525C42.6236 9.6375 42.5211 9.3825 42.3861 9.1875C42.2511 8.9925 42.0861 8.85 41.8911 8.76C41.7011 8.67 41.4836 8.625 41.2386 8.625C40.8536 8.625 40.5261 8.7075 40.2561 8.8725C39.9861 9.0325 39.7311 9.26 39.4911 9.555V13.005ZM39.3936 8.355C39.7086 8 40.0661 7.7125 40.4661 7.4925C40.8661 7.2725 41.3361 7.1625 41.8761 7.1625C42.2961 7.1625 42.6786 7.25 43.0236 7.425C43.3736 7.6 43.6736 7.855 43.9236 8.19C44.1786 8.52 44.3736 8.93 44.5086 9.42C44.6486 9.905 44.7186 10.4625 44.7186 11.0925C44.7186 11.6675 44.6411 12.2 44.4861 12.69C44.3311 13.18 44.1086 13.605 43.8186 13.965C43.5336 14.325 43.1861 14.6075 42.7761 14.8125C42.3711 15.0125 41.9161 15.1125 41.4111 15.1125C40.9811 15.1125 40.6136 15.0475 40.3086 14.9175C40.0036 14.7825 39.7311 14.5975 39.4911 14.3625V17.5125H37.6386V7.305H38.7711C39.0111 7.305 39.1686 7.4175 39.2436 7.6425L39.3936 8.355ZM51.1069 10.2675C51.1069 10.0275 51.0719 9.8025 51.0019 9.5925C50.9369 9.3775 50.8369 9.19 50.7019 9.03C50.5669 8.87 50.3944 8.745 50.1844 8.655C49.9794 8.56 49.7394 8.5125 49.4644 8.5125C48.9294 8.5125 48.5069 8.665 48.1969 8.97C47.8919 9.275 47.6969 9.7075 47.6119 10.2675H51.1069ZM47.5744 11.385C47.6044 11.78 47.6744 12.1225 47.7844 12.4125C47.8944 12.6975 48.0394 12.935 48.2194 13.125C48.3994 13.31 48.6119 13.45 48.8569 13.545C49.1069 13.635 49.3819 13.68 49.6819 13.68C49.9819 13.68 50.2394 13.645 50.4544 13.575C50.6744 13.505 50.8644 13.4275 51.0244 13.3425C51.1894 13.2575 51.3319 13.18 51.4519 13.11C51.5769 13.04 51.6969 13.005 51.8119 13.005C51.9669 13.005 52.0819 13.0625 52.1569 13.1775L52.6894 13.8525C52.4844 14.0925 52.2544 14.295 51.9994 14.46C51.7444 14.62 51.4769 14.75 51.1969 14.85C50.9219 14.945 50.6394 15.0125 50.3494 15.0525C50.0644 15.0925 49.7869 15.1125 49.5169 15.1125C48.9819 15.1125 48.4844 15.025 48.0244 14.85C47.5644 14.67 47.1644 14.4075 46.8244 14.0625C46.4844 13.7125 46.2169 13.2825 46.0219 12.7725C45.8269 12.2575 45.7294 11.6625 45.7294 10.9875C45.7294 10.4625 45.8144 9.97 45.9844 9.51C46.1544 9.045 46.3969 8.6425 46.7119 8.3025C47.0319 7.9575 47.4194 7.685 47.8744 7.485C48.3344 7.285 48.8519 7.185 49.4269 7.185C49.9119 7.185 50.3594 7.2625 50.7694 7.4175C51.1794 7.5725 51.5319 7.8 51.8269 8.1C52.1219 8.395 52.3519 8.76 52.5169 9.195C52.6869 9.625 52.7719 10.1175 52.7719 10.6725C52.7719 10.9525 52.7419 11.1425 52.6819 11.2425C52.6219 11.3375 52.5069 11.385 52.3369 11.385H47.5744ZM60.7035 8.6775H57.9585V15H56.106V8.6775H53.3685V7.305H60.7035V8.6775ZM64.9364 13.6725C65.3564 13.6725 65.6689 13.5675 65.8739 13.3575C66.0839 13.1475 66.1889 12.8775 66.1889 12.5475C66.1889 12.4075 66.1639 12.2725 66.1139 12.1425C66.0689 12.0125 65.9964 11.8975 65.8964 11.7975C65.7964 11.6975 65.6664 11.62 65.5064 11.565C65.3464 11.505 65.1539 11.475 64.9289 11.475H63.5564V13.6725H64.9364ZM64.9214 10.155C65.4564 10.155 65.9089 10.22 66.2789 10.35C66.6489 10.48 66.9489 10.655 67.1789 10.875C67.4089 11.095 67.5739 11.35 67.6739 11.64C67.7789 11.925 67.8314 12.225 67.8314 12.54C67.8314 12.9 67.7664 13.2325 67.6364 13.5375C67.5114 13.8375 67.3239 14.0975 67.0739 14.3175C66.8289 14.5325 66.5264 14.7 66.1664 14.82C65.8114 14.94 65.4039 15 64.9439 15H61.7939V7.305H63.5564V10.155H64.9214ZM78.2341 8.9325C78.1791 9.0025 78.1241 9.0575 78.0691 9.0975C78.0191 9.1375 77.9441 9.1575 77.8441 9.1575C77.7491 9.1575 77.6566 9.13 77.5666 9.075C77.4766 9.015 77.3691 8.95 77.2441 8.88C77.1191 8.805 76.9691 8.74 76.7941 8.685C76.6241 8.625 76.4116 8.595 76.1566 8.595C75.8316 8.595 75.5466 8.655 75.3016 8.775C75.0566 8.89 74.8516 9.0575 74.6866 9.2775C74.5266 9.4975 74.4066 9.765 74.3266 10.08C74.2466 10.39 74.2066 10.7425 74.2066 11.1375C74.2066 11.5475 74.2491 11.9125 74.3341 12.2325C74.4241 12.5525 74.5516 12.8225 74.7166 13.0425C74.8816 13.2575 75.0816 13.4225 75.3166 13.5375C75.5516 13.6475 75.8166 13.7025 76.1116 13.7025C76.4066 13.7025 76.6441 13.6675 76.8241 13.5975C77.0091 13.5225 77.1641 13.4425 77.2891 13.3575C77.4141 13.2675 77.5216 13.1875 77.6116 13.1175C77.7066 13.0425 77.8116 13.005 77.9266 13.005C78.0766 13.005 78.1891 13.0625 78.2641 13.1775L78.7966 13.8525C78.5916 14.0925 78.3691 14.295 78.1291 14.46C77.8891 14.62 77.6391 14.75 77.3791 14.85C77.1241 14.945 76.8591 15.0125 76.5841 15.0525C76.3141 15.0925 76.0441 15.1125 75.7741 15.1125C75.2991 15.1125 74.8516 15.025 74.4316 14.85C74.0116 14.67 73.6441 14.41 73.3291 14.07C73.0141 13.73 72.7641 13.315 72.5791 12.825C72.3991 12.33 72.3091 11.7675 72.3091 11.1375C72.3091 10.5725 72.3891 10.05 72.5491 9.57C72.7141 9.085 72.9541 8.6675 73.2691 8.3175C73.5841 7.9625 73.9741 7.685 74.4391 7.485C74.9041 7.285 75.4391 7.185 76.0441 7.185C76.6191 7.185 77.1216 7.2775 77.5516 7.4625C77.9866 7.6475 78.3766 7.9125 78.7216 8.2575L78.2341 8.9325ZM83.2311 7.185C83.8011 7.185 84.3186 7.2775 84.7836 7.4625C85.2536 7.6475 85.6536 7.91 85.9836 8.25C86.3186 8.59 86.5761 9.005 86.7561 9.495C86.9361 9.985 87.0261 10.5325 87.0261 11.1375C87.0261 11.7475 86.9361 12.2975 86.7561 12.7875C86.5761 13.2775 86.3186 13.695 85.9836 14.04C85.6536 14.385 85.2536 14.65 84.7836 14.835C84.3186 15.02 83.8011 15.1125 83.2311 15.1125C82.6561 15.1125 82.1336 15.02 81.6636 14.835C81.1936 14.65 80.7911 14.385 80.4561 14.04C80.1261 13.695 79.8686 13.2775 79.6836 12.7875C79.5036 12.2975 79.4136 11.7475 79.4136 11.1375C79.4136 10.5325 79.5036 9.985 79.6836 9.495C79.8686 9.005 80.1261 8.59 80.4561 8.25C80.7911 7.91 81.1936 7.6475 81.6636 7.4625C82.1336 7.2775 82.6561 7.185 83.2311 7.185ZM83.2311 13.6875C83.8711 13.6875 84.3436 13.4725 84.6486 13.0425C84.9586 12.6125 85.1136 11.9825 85.1136 11.1525C85.1136 10.3225 84.9586 9.69 84.6486 9.255C84.3436 8.82 83.8711 8.6025 83.2311 8.6025C82.5811 8.6025 82.0986 8.8225 81.7836 9.2625C81.4736 9.6975 81.3186 10.3275 81.3186 11.1525C81.3186 11.9775 81.4736 12.6075 81.7836 13.0425C82.0986 13.4725 82.5811 13.6875 83.2311 13.6875ZM93.3497 13.68V8.7225H91.4597C91.4097 9.3675 91.3472 9.95 91.2722 10.47C91.1972 10.985 91.1097 11.445 91.0097 11.85C90.9097 12.255 90.7997 12.6075 90.6797 12.9075C90.5647 13.2075 90.4397 13.465 90.3047 13.68H93.3497ZM96.5597 13.6275V17.025C96.5597 17.195 96.5097 17.33 96.4097 17.43C96.3147 17.53 96.1897 17.58 96.0347 17.58H94.8797V15H89.1197V17.055C89.1197 17.185 89.0772 17.305 88.9922 17.415C88.9122 17.525 88.7847 17.58 88.6097 17.58H87.4397V13.68H87.6572C87.8322 13.68 88.0022 13.6575 88.1672 13.6125C88.3322 13.5625 88.4897 13.4625 88.6397 13.3125C88.7947 13.1625 88.9397 12.9475 89.0747 12.6675C89.2147 12.3825 89.3397 12.005 89.4497 11.535C89.5597 11.06 89.6547 10.4775 89.7347 9.7875C89.8197 9.0975 89.8872 8.27 89.9372 7.305H95.1497V13.6275H96.5597ZM102.552 10.2675C102.552 10.0275 102.517 9.8025 102.447 9.5925C102.382 9.3775 102.282 9.19 102.147 9.03C102.012 8.87 101.84 8.745 101.63 8.655C101.425 8.56 101.185 8.5125 100.91 8.5125C100.375 8.5125 99.9522 8.665 99.6422 8.97C99.3372 9.275 99.1422 9.7075 99.0572 10.2675H102.552ZM99.0197 11.385C99.0497 11.78 99.1197 12.1225 99.2297 12.4125C99.3397 12.6975 99.4847 12.935 99.6647 13.125C99.8447 13.31 100.057 13.45 100.302 13.545C100.552 13.635 100.827 13.68 101.127 13.68C101.427 13.68 101.685 13.645 101.9 13.575C102.12 13.505 102.31 13.4275 102.47 13.3425C102.635 13.2575 102.777 13.18 102.897 13.11C103.022 13.04 103.142 13.005 103.257 13.005C103.412 13.005 103.527 13.0625 103.602 13.1775L104.135 13.8525C103.93 14.0925 103.7 14.295 103.445 14.46C103.19 14.62 102.922 14.75 102.642 14.85C102.367 14.945 102.085 15.0125 101.795 15.0525C101.51 15.0925 101.232 15.1125 100.962 15.1125C100.427 15.1125 99.9297 15.025 99.4697 14.85C99.0097 14.67 98.6097 14.4075 98.2697 14.0625C97.9297 13.7125 97.6622 13.2825 97.4672 12.7725C97.2722 12.2575 97.1747 11.6625 97.1747 10.9875C97.1747 10.4625 97.2597 9.97 97.4297 9.51C97.5997 9.045 97.8422 8.6425 98.1572 8.3025C98.4772 7.9575 98.8647 7.685 99.3197 7.485C99.7797 7.285 100.297 7.185 100.872 7.185C101.357 7.185 101.805 7.2625 102.215 7.4175C102.625 7.5725 102.977 7.8 103.272 8.1C103.567 8.395 103.797 8.76 103.962 9.195C104.132 9.625 104.217 10.1175 104.217 10.6725C104.217 10.9525 104.187 11.1425 104.127 11.2425C104.067 11.3375 103.952 11.385 103.782 11.385H99.0197ZM107.46 13.005C107.67 13.26 107.897 13.44 108.142 13.545C108.392 13.65 108.662 13.7025 108.952 13.7025C109.232 13.7025 109.485 13.65 109.71 13.545C109.935 13.44 110.125 13.28 110.28 13.065C110.44 12.85 110.562 12.58 110.647 12.255C110.732 11.925 110.775 11.5375 110.775 11.0925C110.775 10.6425 110.737 10.2625 110.662 9.9525C110.592 9.6375 110.49 9.3825 110.355 9.1875C110.22 8.9925 110.055 8.85 109.86 8.76C109.67 8.67 109.452 8.625 109.207 8.625C108.822 8.625 108.495 8.7075 108.225 8.8725C107.955 9.0325 107.7 9.26 107.46 9.555V13.005ZM107.362 8.355C107.677 8 108.035 7.7125 108.435 7.4925C108.835 7.2725 109.305 7.1625 109.845 7.1625C110.265 7.1625 110.647 7.25 110.992 7.425C111.342 7.6 111.642 7.855 111.892 8.19C112.147 8.52 112.342 8.93 112.477 9.42C112.617 9.905 112.687 10.4625 112.687 11.0925C112.687 11.6675 112.61 12.2 112.455 12.69C112.3 13.18 112.077 13.605 111.787 13.965C111.502 14.325 111.155 14.6075 110.745 14.8125C110.34 15.0125 109.885 15.1125 109.38 15.1125C108.95 15.1125 108.582 15.0475 108.277 14.9175C107.972 14.7825 107.7 14.5975 107.46 14.3625V17.5125H105.607V7.305H106.74C106.98 7.305 107.137 7.4175 107.212 7.6425L107.362 8.355ZM125.097 15H123.814C123.484 15 123.234 14.95 123.064 14.85C122.894 14.75 122.759 14.5875 122.659 14.3625L121.519 12.2325C121.424 12.0475 121.297 11.91 121.137 11.82C120.982 11.73 120.799 11.685 120.589 11.685H119.982V15H118.189V11.685H117.574C117.369 11.685 117.187 11.73 117.027 11.82C116.867 11.91 116.739 12.0475 116.644 12.2325L115.504 14.3625C115.404 14.5875 115.269 14.75 115.099 14.85C114.929 14.95 114.679 15 114.349 15H113.074L114.874 11.8275C114.999 11.6025 115.142 11.4175 115.302 11.2725C115.462 11.1225 115.667 11.0075 115.917 10.9275C115.732 10.8625 115.574 10.77 115.444 10.65C115.314 10.525 115.189 10.3625 115.069 10.1625L113.269 7.305H114.732C114.902 7.305 115.057 7.35 115.197 7.44C115.342 7.525 115.454 7.6425 115.534 7.7925L116.839 10.005C116.934 10.165 117.044 10.285 117.169 10.365C117.299 10.44 117.469 10.4775 117.679 10.4775H118.189V7.305H119.982V10.4775H120.454C120.664 10.4775 120.837 10.44 120.972 10.365C121.112 10.285 121.229 10.165 121.324 10.005L122.629 7.7925C122.709 7.6425 122.819 7.525 122.959 7.44C123.104 7.35 123.264 7.305 123.439 7.305H124.894L123.094 10.1625C122.974 10.3625 122.849 10.525 122.719 10.65C122.589 10.77 122.432 10.8625 122.247 10.9275C122.497 11.0075 122.702 11.1225 122.862 11.2725C123.022 11.4175 123.164 11.6025 123.289 11.8275L125.097 15ZM130.195 11.715C129.66 11.74 129.21 11.7875 128.845 11.8575C128.48 11.9225 128.187 12.0075 127.967 12.1125C127.747 12.2175 127.59 12.34 127.495 12.48C127.4 12.62 127.352 12.7725 127.352 12.9375C127.352 13.2625 127.447 13.495 127.637 13.635C127.832 13.775 128.085 13.845 128.395 13.845C128.775 13.845 129.102 13.7775 129.377 13.6425C129.657 13.5025 129.93 13.2925 130.195 13.0125V11.715ZM125.95 8.3775C126.835 7.5675 127.9 7.1625 129.145 7.1625C129.595 7.1625 129.997 7.2375 130.352 7.3875C130.707 7.5325 131.007 7.7375 131.252 8.0025C131.497 8.2625 131.682 8.575 131.807 8.94C131.937 9.305 132.002 9.705 132.002 10.14V15H131.162C130.987 15 130.852 14.975 130.757 14.925C130.662 14.87 130.587 14.7625 130.532 14.6025L130.367 14.0475C130.172 14.2225 129.982 14.3775 129.797 14.5125C129.612 14.6425 129.42 14.7525 129.22 14.8425C129.02 14.9325 128.805 15 128.575 15.045C128.35 15.095 128.1 15.12 127.825 15.12C127.5 15.12 127.2 15.0775 126.925 14.9925C126.65 14.9025 126.412 14.77 126.212 14.595C126.012 14.42 125.857 14.2025 125.747 13.9425C125.637 13.6825 125.582 13.38 125.582 13.035C125.582 12.84 125.615 12.6475 125.68 12.4575C125.745 12.2625 125.85 12.0775 125.995 11.9025C126.145 11.7275 126.337 11.5625 126.572 11.4075C126.807 11.2525 127.095 11.1175 127.435 11.0025C127.78 10.8875 128.18 10.795 128.635 10.725C129.09 10.65 129.61 10.605 130.195 10.59V10.14C130.195 9.625 130.085 9.245 129.865 9C129.645 8.75 129.327 8.625 128.912 8.625C128.612 8.625 128.362 8.66 128.162 8.73C127.967 8.8 127.795 8.88 127.645 8.97C127.495 9.055 127.357 9.1325 127.232 9.2025C127.112 9.2725 126.977 9.3075 126.827 9.3075C126.697 9.3075 126.587 9.275 126.497 9.21C126.407 9.14 126.335 9.06 126.28 8.97L125.95 8.3775ZM140.452 7.305V15H138.6V11.595H135.6V15H133.747V7.305H135.6V10.2225H138.6V7.305H140.452ZM149.202 7.305V15H147.35V10.5075C147.35 10.3925 147.355 10.2675 147.365 10.1325C147.38 9.9925 147.397 9.8525 147.417 9.7125C147.317 9.9425 147.207 10.145 147.087 10.32C147.077 10.33 147.027 10.4 146.937 10.53C146.847 10.655 146.73 10.8175 146.585 11.0175C146.445 11.2175 146.285 11.445 146.105 11.7C145.925 11.95 145.742 12.205 145.557 12.465C145.122 13.08 144.63 13.775 144.08 14.55C144.01 14.655 143.917 14.7575 143.802 14.8575C143.692 14.9575 143.565 15.0075 143.42 15.0075H142.287V7.3125H144.14V11.805C144.14 11.92 144.132 12.0475 144.117 12.1875C144.107 12.3225 144.092 12.46 144.072 12.6C144.182 12.355 144.292 12.1525 144.402 11.9925C144.407 11.9825 144.455 11.915 144.545 11.79C144.635 11.665 144.75 11.5025 144.89 11.3025C145.035 11.1025 145.197 10.8775 145.377 10.6275C145.557 10.3725 145.74 10.1125 145.925 9.8475C146.36 9.2325 146.855 8.5375 147.41 7.7625C147.48 7.6525 147.572 7.55 147.687 7.455C147.802 7.355 147.932 7.305 148.077 7.305H149.202ZM155.99 10.2675C155.99 10.0275 155.955 9.8025 155.885 9.5925C155.82 9.3775 155.72 9.19 155.585 9.03C155.45 8.87 155.277 8.745 155.067 8.655C154.862 8.56 154.622 8.5125 154.347 8.5125C153.812 8.5125 153.39 8.665 153.08 8.97C152.775 9.275 152.58 9.7075 152.495 10.2675H155.99ZM152.457 11.385C152.487 11.78 152.557 12.1225 152.667 12.4125C152.777 12.6975 152.922 12.935 153.102 13.125C153.282 13.31 153.495 13.45 153.74 13.545C153.99 13.635 154.265 13.68 154.565 13.68C154.865 13.68 155.122 13.645 155.337 13.575C155.557 13.505 155.747 13.4275 155.907 13.3425C156.072 13.2575 156.215 13.18 156.335 13.11C156.46 13.04 156.58 13.005 156.695 13.005C156.85 13.005 156.965 13.0625 157.04 13.1775L157.572 13.8525C157.367 14.0925 157.137 14.295 156.882 14.46C156.627 14.62 156.36 14.75 156.08 14.85C155.805 14.945 155.522 15.0125 155.232 15.0525C154.947 15.0925 154.67 15.1125 154.4 15.1125C153.865 15.1125 153.367 15.025 152.907 14.85C152.447 14.67 152.047 14.4075 151.707 14.0625C151.367 13.7125 151.1 13.2825 150.905 12.7725C150.71 12.2575 150.612 11.6625 150.612 10.9875C150.612 10.4625 150.697 9.97 150.867 9.51C151.037 9.045 151.28 8.6425 151.595 8.3025C151.915 7.9575 152.302 7.685 152.757 7.485C153.217 7.285 153.735 7.185 154.31 7.185C154.795 7.185 155.242 7.2625 155.652 7.4175C156.062 7.5725 156.415 7.8 156.71 8.1C157.005 8.395 157.235 8.76 157.4 9.195C157.57 9.625 157.655 10.1175 157.655 10.6725C157.655 10.9525 157.625 11.1425 157.565 11.2425C157.505 11.3375 157.39 11.385 157.22 11.385H152.457Z" fill="white"/>
<path d="M174.13 14L169.047 5L179.214 5L174.13 14Z" fill="white"/>
</svg>
